<?xml version="1.0" encoding="UTF-8" standalone="no"?>
<!-- Created with Inkscape (http://www.inkscape.org/) -->

<svg
   width="128.53946mm"
   height="136.82161mm"
   viewBox="0 0 128.53946 136.82161"
   version="1.1"
   id="svg5"
   xml:space="preserve"
   inkscape:version="1.2.2 (b0a8486541, 2022-12-01)"
   sodipodi:docname="logo_w_creepytext.svg"
   inkscape:export-filename="logo_w_creepytext.png"
   inkscape:export-xdpi="96"
   inkscape:export-ydpi="96"
   xmlns:inkscape="http://www.inkscape.org/namespaces/inkscape"
   xmlns:sodipodi="http://sodipodi.sourceforge.net/DTD/sodipodi-0.dtd"
   xmlns="http://www.w3.org/2000/svg"
   xmlns:svg="http://www.w3.org/2000/svg"><sodipodi:namedview
     id="namedview7"
     pagecolor="#ffffff"
     bordercolor="#000000"
     borderopacity="0.25"
     inkscape:showpageshadow="2"
     inkscape:pageopacity="0.0"
     inkscape:pagecheckerboard="0"
     inkscape:deskcolor="#d1d1d1"
     inkscape:document-units="mm"
     showgrid="false"
     inkscape:zoom="0.64693624"
     inkscape:cx="-229.54349"
     inkscape:cy="372.52512"
     inkscape:window-width="2124"
     inkscape:window-height="1236"
     inkscape:window-x="5342"
     inkscape:window-y="533"
     inkscape:window-maximized="0"
     inkscape:current-layer="layer1" /><defs
     id="defs2" /><g
     inkscape:label="Layer 1"
     inkscape:groupmode="layer"
     id="layer1"
     transform="translate(-38.710941,-74.657949)"><circle
       style="fill:#000000;fill-opacity:1;stroke-width:1.80275"
       id="path464-3"
       cx="102.98067"
       cy="138.87482"
       r="43.459656" /><circle
       style="fill:#fbeb0a;fill-opacity:1;stroke-width:1.64883"
       id="path464"
       cx="102.98067"
       cy="138.87482"
       r="39.748943" /><path
       style="fill:#000000;stroke-width:0.0417246"
       d="m 120.01899,137.4727 c -0.0945,-0.29259 -0.2164,-0.65403 -0.27088,-0.80319 -0.0545,-0.14917 -0.19792,-0.58102 -0.31877,-0.95967 -0.12086,-0.37865 -0.27093,-0.82928 -0.33351,-1.00139 -0.0626,-0.17211 -0.23747,-0.68846 -0.38866,-1.14743 -0.15119,-0.45897 -0.29479,-0.89082 -0.3191,-0.95966 -0.0243,-0.0689 -0.42743,-1.27827 -0.89581,-2.68762 -0.46838,-1.40934 -0.87592,-2.57787 -0.90564,-2.59672 -0.0626,-0.0397 -0.22419,-0.0447 -0.35045,-0.0108 -0.0786,0.0211 -0.0905,0.0636 -0.1133,0.40624 -0.0677,1.01625 -0.60455,3.35207 -0.98049,4.26614 -0.0465,0.11305 -0.13455,0.33698 -0.19567,0.49762 -0.0611,0.16065 -0.14237,0.36439 -0.18056,0.45278 -0.12503,0.28937 -0.72141,1.46505 -0.77567,1.52914 -0.0292,0.0344 -0.0638,0.0932 -0.077,0.13058 -0.0828,0.23492 -0.95323,1.34099 -1.38649,1.76186 -0.59149,0.57457 -1.54112,1.23781 -1.69761,1.18564 -0.0605,-0.0202 -0.34,-0.54095 -0.91305,-1.70116 -0.25503,-0.51635 -0.54936,-1.10779 -0.65407,-1.31433 -0.2116,-0.41736 -0.75251,-1.59963 -1.04039,-2.27399 -1.10804,-2.59566 -1.93449,-5.12296 -2.2854,-6.98887 -0.27842,-1.48039 -0.29453,-1.58262 -0.35511,-2.25313 -0.0249,-0.27538 -0.0636,-0.69784 -0.086,-0.9388 -0.0773,-0.83042 -0.0321,-2.58144 0.0888,-3.44228 0.064,-0.45545 0.14032,-0.89444 0.2258,-1.29843 l 0.0717,-0.33875 0.2768,0.0994 c 1.40822,0.50567 2.52323,1.6172 3.38422,3.37366 0.34701,0.70791 0.4934,1.07202 0.73814,1.83588 0.10294,0.32128 0.22151,0.68741 0.2635,0.81363 0.0922,0.27713 0.4122,1.52379 0.46592,1.81502 0.0211,0.11474 0.0546,0.24618 0.0744,0.29207 0.0335,0.0778 0.11267,0.43593 0.1384,0.62587 0.009,0.0674 0.0473,0.0855 0.19869,0.0943 0.10306,0.006 0.21112,-0.005 0.24014,-0.0237 0.029,-0.019 0.15573,-0.44523 0.28159,-0.94716 0.25536,-1.01838 0.53763,-1.97468 0.68961,-2.33626 0.0193,-0.0459 0.0813,-0.22427 0.13779,-0.39638 0.10254,-0.31235 0.21499,-0.60507 0.50491,-1.31432 0.19027,-0.46547 0.72955,-1.50338 0.94929,-1.827 0.90699,-1.33582 1.89503,-1.84911 2.81309,-1.46141 0.56161,0.23718 1.0452,0.62619 1.5287,1.22974 0.40354,0.50373 0.9589,1.55483 1.33022,2.51763 0.0443,0.11475 0.0961,0.24618 0.11529,0.29208 0.11971,0.28683 0.21289,0.5529 0.21289,0.6079 0,0.0351 0.017,0.0817 0.0379,0.1035 0.0208,0.0218 0.0569,0.10535 0.0802,0.18568 0.0233,0.0803 0.0925,0.27746 0.15369,0.4381 0.0612,0.16064 0.12746,0.33902 0.14718,0.39639 0.0197,0.0574 0.0851,0.23574 0.1452,0.39638 0.0601,0.16064 0.1473,0.40004 0.19368,0.53199 0.0464,0.13195 0.0975,0.23991 0.11373,0.23991 0.0263,0 0.16332,-0.44975 0.25411,-0.83449 0.19513,-0.82686 0.88265,-3.07602 1.24992,-4.08901 0.7226,-1.99306 1.54671,-3.45449 2.59206,-4.5966 0.57405,-0.62719 1.58121,-1.30472 2.23989,-1.5068 0.17324,-0.0531 0.30229,-0.11599 0.30251,-0.14731 4.2e-4,-0.03 0.0177,-0.0439 0.0387,-0.0309 0.0966,0.0597 0.32141,1.32134 0.44654,2.50557 0.0996,0.94246 0.0993,3.15009 -4.6e-4,4.15159 -0.13983,1.40308 -0.33341,2.6784 -0.56684,3.73435 -0.1224,0.55371 -0.45045,1.89447 -0.52578,2.14882 -0.0306,0.10326 -0.093,0.31919 -0.13869,0.47983 -0.14939,0.52507 -0.58236,1.90751 -0.77101,2.46175 -0.22786,0.66949 -1.08777,2.98214 -1.19461,3.21279 -0.0212,0.0459 -0.0745,0.17733 -0.11837,0.29207 -0.13031,0.34107 -0.38022,0.94611 -0.47394,1.14743 -0.50114,1.07653 -0.95016,1.92046 -1.18055,2.21885 -0.0459,0.0594 -0.11161,0.15105 -0.14603,0.20357 -0.20336,0.31029 -0.68405,0.83229 -1.07364,1.1659 -0.19363,0.16581 -0.68606,0.4799 -1.03346,0.65918 -0.18569,0.0958 -0.6564,0.25876 -0.74755,0.25876 -0.0385,0 -0.11808,-0.18366 -0.23058,-0.53199 z"
       id="path2693" /><path
       style="fill:#000000;stroke-width:0.0417246"
       d="m 87.065159,138.61502 c -1.362193,-0.15528 -2.017187,-0.29489 -3.150208,-0.67145 -0.857456,-0.28498 -1.32444,-0.48763 -2.018161,-0.87579 -0.468539,-0.26217 -1.218073,-0.75071 -1.465844,-0.95543 -1.239235,-1.02392 -1.606164,-1.41976 -2.28127,-2.461 -0.332413,-0.5127 -0.855826,-1.49505 -1.098983,-2.00434 -0.48597,-1.01786 -2.260387,-3.28883 0.252915,-3.08358 1.064567,0.0869 0.790069,0.0665 1.643984,0.11631 1.169025,-0.041 2.079099,0.47579 3.256652,1.42374 0.63205,0.50882 0.777018,0.6279 1.022253,0.83974 0.137691,0.11895 0.363004,0.29902 0.500695,0.40016 0.137691,0.10114 0.259736,0.19462 0.27121,0.20774 0.01147,0.0131 0.12413,0.091 0.250348,0.17319 1.069322,0.69591 2.222996,1.08669 3.609178,1.22253 0.312633,0.0306 1.226151,-0.0407 1.668984,-0.13037 1.182633,-0.23943 2.096969,-0.82627 2.466782,-1.58326 0.15691,-0.32119 0.161715,-0.34412 0.156859,-0.74858 -0.01386,-1.15472 -0.627503,-1.9424 -2.026692,-2.6015 -0.716785,-0.33765 -1.352605,-0.52703 -2.808353,-0.83648 -1.060418,-0.22541 -1.204318,-0.25811 -1.857519,-0.42203 -1.732248,-0.43473 -2.892563,-1.03611 -3.880705,-2.01132 -1.123982,-1.10927 -1.75776,-2.53076 -1.823072,-4.08891 -0.04504,-1.0746 0.135353,-1.90695 0.631073,-2.9118 0.308714,-0.62578 0.672205,-1.1293 1.201924,-1.66495 1.000331,-1.01152 1.932007,-1.598 3.287409,-2.06935 1.980139,-0.68861 4.14237,-0.78864 6.175242,-0.28567 0.814303,0.20147 1.325837,0.38346 2.029618,0.72209 1.442947,0.69427 1.770424,1.06037 2.479495,2.24093 0.31689,0.5276 0.789865,1.23468 1.248716,2.53013 0.158242,0.44675 0.769587,0.87729 -0.23814,0.90412 -0.394823,0.0105 -0.871505,0.11809 -1.510723,0.11552 -0.646307,-0.003 -0.893613,0.1645 -1.785234,-0.24348 -2.601623,-1.19041 -3.225024,-1.36986 -4.581172,-1.31877 -0.741168,0.0279 -1.303652,0.15049 -1.83643,0.40016 -1.116747,0.52332 -1.53891,1.18206 -1.167581,1.82188 0.185348,0.31936 0.668601,0.69356 1.208552,0.93582 0.365349,0.16392 1.191748,0.42723 1.816322,0.57873 2.09589,0.50838 2.461512,0.61539 3.44228,1.00753 0.506742,0.20261 1.428738,0.67537 1.930047,0.98964 0.911031,0.57115 1.921841,1.47923 2.463002,2.2127 0.213745,0.2897 0.676491,1.05061 0.676491,1.11238 0,0.0103 0.05452,0.13733 0.121148,0.28236 0.715941,1.55831 0.80087,3.48618 0.22943,5.20806 -0.133998,0.40376 -0.554861,1.31854 -0.66018,1.43494 -0.02478,0.0274 -0.06383,0.08 -0.08678,0.11698 -0.367256,0.59123 -1.054236,1.36436 -1.543811,1.73742 -0.137691,0.10493 -0.259736,0.20167 -0.27121,0.215 -0.06236,0.0724 -0.6204,0.4392 -1.004052,0.6599 -1.256396,0.72279 -2.520835,1.11622 -4.252003,1.32299 -0.46963,0.0561 -2.29979,0.0801 -2.692483,0.0354 z"
       id="path2691"
       sodipodi:nodetypes="ssssssscsssssssssssssssssssssssssssssssssssssssssss" /><path
       style="fill:#000000;stroke-width:0.0417246"
       d="m 93.337178,169.65921 c -0.76646,-0.088 -1.50511,-0.24803 -2.312166,-0.50108 -0.748203,-0.2346 -0.863846,-0.28043 -1.923052,-0.76218 -0.529418,-0.24079 -1.57368,-0.82832 -1.877607,-1.05639 -0.05737,-0.0431 -0.282684,-0.20296 -0.500695,-0.35534 -0.218011,-0.15239 -0.405772,-0.28855 -0.417246,-0.30258 -0.01147,-0.014 -0.226627,-0.19373 -0.478119,-0.39933 -1.62797,-1.33092 -2.940886,-2.96468 -3.938462,-4.90094 -0.764824,-1.4845 -1.197619,-2.79186 -1.443434,-4.36022 -0.154371,-0.98493 -0.195184,-1.2107 -0.223083,-1.23408 -0.01625,-0.0137 -0.273646,-0.11439 -0.571977,-0.22393 -2.253126,-0.82732 -4.099378,-1.69381 -5.148308,-2.41622 -0.441374,-0.30398 -0.930166,-0.87019 -1.157932,-1.34135 -0.209542,-0.43346 -0.265448,-0.68312 -0.265227,-1.18442 3.76e-4,-0.85924 0.208275,-1.48514 0.652751,-1.96523 0.300709,-0.3248 0.624748,-0.48669 1.090073,-0.54459 0.674127,-0.0839 1.314707,0.0678 2.387754,0.56542 2.172633,1.00755 3.318277,1.4807 3.585237,1.4807 0.09936,0 0.119918,-0.0355 0.272166,-0.46941 0.185132,-0.52766 0.745508,-1.66447 1.023244,-2.07579 0.948991,-1.40545 2.057782,-2.39489 3.464274,-3.0914 0.875099,-0.43334 1.82355,-0.72712 2.941585,-0.91112 2.19197,-0.36076 4.370677,-0.0914 5.549372,0.68615 0.734998,0.48483 1.018948,1.08214 0.968904,2.03813 -0.03901,0.74524 -0.251871,1.29117 -0.705292,1.8089 -0.32672,0.37305 -0.538205,0.53403 -1.016169,0.77348 -0.682047,0.34169 -1.343228,0.53304 -2.418512,0.6999 -1.652239,0.2564 -3.038894,0.92409 -3.683524,1.77366 -0.34145,0.45001 -0.450453,0.64615 -0.382446,0.68818 0.10613,0.0656 2.812496,0.70531 3.857775,0.91188 2.367522,0.46789 5.199956,0.84323 7.885522,1.04497 1.515236,0.11382 2.906296,0.18024 2.944566,0.14058 0.0177,-0.0184 0.12537,-0.23995 0.23918,-0.49238 0.11381,-0.25244 0.34059,-0.75415 0.50395,-1.11493 0.16336,-0.36077 0.29702,-0.6658 0.29702,-0.67784 0,-0.012 0.21171,-0.44912 0.47047,-0.9713 0.96757,-1.95259 1.83302,-3.19165 3.15775,-4.52092 1.61576,-1.6213 3.28473,-2.59743 5.65551,-3.30772 1.83795,-0.55065 3.88891,-0.6959 5.88316,-0.41663 1.4763,0.20673 2.95533,0.74276 4.20608,1.52437 1.32952,0.83082 2.60006,2.13702 3.53002,3.6291 0.26177,0.41999 0.83052,1.53098 1.07005,2.09022 0.0663,0.15491 0.14385,0.28164 0.17223,0.28164 0.0284,0 0.23543,-0.0668 0.46012,-0.14854 1.0933,-0.39756 1.5125,-0.53306 2.70337,-0.8738 0.97705,-0.27957 1.60849,-0.39565 2.17624,-0.40008 0.55975,-0.004 0.80323,0.0804 1.06566,0.37083 0.22032,0.24388 0.26332,0.41051 0.26057,1.00987 -0.005,1.12244 -0.38777,2.17846 -1.12091,3.09358 -0.99457,1.24145 -2.4285,2.19232 -4.26512,2.82831 l -0.63183,0.21879 -0.0292,0.27806 c -0.15655,1.49271 -0.77176,3.49852 -1.51221,4.93035 -0.78144,1.5111 -1.5622,2.56765 -2.8058,3.79694 -1.07045,1.05813 -2.53858,2.07773 -3.91251,2.71721 -0.24687,0.11491 -0.47948,0.22524 -0.51692,0.24519 -0.20796,0.11086 -1.07752,0.44526 -1.67037,0.64235 -0.99801,0.33179 -1.24198,0.37908 -1.95419,0.37878 -0.59384,-4.2e-4 -0.61104,-0.003 -0.93208,-0.14058 -0.57697,-0.24755 -0.93556,-0.70721 -1.14261,-1.46465 -0.10966,-0.40119 -0.0984,-1.36526 0.0209,-1.80147 0.2779,-1.01523 0.88293,-1.89256 1.68055,-2.43693 0.17083,-0.11658 0.56407,-0.33061 0.87388,-0.4756 2.40279,-1.12459 3.60325,-1.9321 4.52963,-3.04692 0.3547,-0.42687 0.5135,-0.66697 0.87016,-1.31569 0.251,-0.45652 0.35239,-0.70666 0.30546,-0.75359 -0.0104,-0.0104 -0.2516,0.0372 -0.53595,0.10582 -1.11164,0.26828 -2.69812,0.56485 -4.68947,0.87664 -1.01966,0.15964 -2.47916,0.33106 -4.79833,0.56356 -1.01716,0.10197 -2.86083,0.23278 -3.72711,0.26445 l -0.80639,0.0295 -0.11708,0.29207 c -0.50443,1.25832 -1.44463,3.0481 -2.16993,4.13074 -0.9131,1.36294 -1.47667,2.03663 -2.40063,2.86968 -1.17483,1.05923 -2.311402,1.73636 -3.650919,2.17509 -1.230834,0.40313 -2.305805,0.56954 -3.63004,0.56196 -0.424548,-0.003 -0.997142,-0.0303 -1.272431,-0.0619 z m 1.564503,-6.61275 c 1.305332,-0.25767 2.306514,-0.83931 3.213691,-1.86701 0.24896,-0.28204 1.042219,-1.42974 1.042219,-1.50791 0,-0.0187 -0.154903,-0.0466 -0.344228,-0.0621 -2.69734,-0.22101 -5.826446,-0.6005 -7.437412,-0.90201 -2.216672,-0.41487 -2.779443,-0.53404 -4.040843,-0.85563 -0.40953,-0.10441 -0.75555,-0.17888 -0.768934,-0.1655 -0.07478,0.0748 0.516777,1.41235 0.888168,2.00822 0.585611,0.93958 1.451126,1.76358 2.461248,2.3432 0.902853,0.51807 2.31243,0.95625 3.383458,1.05179 0.45564,0.0406 1.292576,0.0182 1.602633,-0.043 z m 14.791389,-9.11392 c 2.29082,-0.15389 5.41631,-0.56373 7.63966,-1.0018 0.75055,-0.14789 3.44432,-0.7627 3.47467,-0.79304 0.0285,-0.0285 -0.24099,-0.51764 -0.44738,-0.81196 -0.27456,-0.39156 -0.78801,-0.87828 -1.2532,-1.18796 -0.58018,-0.38625 -1.0986,-0.60205 -1.92419,-0.80097 -0.37291,-0.0899 -0.56847,-0.10873 -1.31432,-0.12688 -0.75931,-0.0185 -0.94302,-0.01 -1.37691,0.0645 -0.87255,0.14962 -1.42508,0.3315 -2.14853,0.70725 -1.06181,0.55149 -1.8515,1.26563 -2.54758,2.30383 -0.27136,0.40473 -0.79556,1.39751 -0.85601,1.62118 -0.0258,0.0956 -0.0209,0.0977 0.17584,0.0747 0.11134,-0.013 0.37141,-0.035 0.57795,-0.0489 z"
       id="path302" /><text
       xml:space="preserve"
       style="font-size:32.4556px;line-height:31px;font-family:'Baekmuk Headline';-inkscape-font-specification:'Baekmuk Headline';letter-spacing:-1.10596px;fill:#000000;stroke-width:3.166"
       x="40.83181"
       y="210.4949"
       id="text238"><tspan
         sodipodi:role="line"
         style="font-style:italic;font-variant:normal;font-weight:bold;font-stretch:normal;font-size:32.4556px;font-family:Creepster;-inkscape-font-specification:'Creepster Bold Italic';stroke-width:3.166"
         x="40.83181"
         y="210.4949"
         id="tspan244">smirk.ca$h</tspan></text><text
       xml:space="preserve"
       style="font-style:italic;font-variant:normal;font-weight:bold;font-stretch:normal;font-size:25.4px;font-family:'Syne Mono';-inkscape-font-specification:'Syne Mono Bold Italic';fill:#000000;stroke-width:3.166"
       x="38.469421"
       y="93.592194"
       id="text408"><tspan
         sodipodi:role="line"
         id="tspan406"
         style="font-style:italic;font-variant:normal;font-weight:bold;font-stretch:normal;font-size:25.4px;font-family:Creepster;-inkscape-font-specification:'Creepster Bold Italic';stroke-width:3.166"
         x="38.469421"
         y="93.592194">smirk wallet</tspan></text></g></svg>
