<?xml version="1.0" encoding="UTF-8" standalone="no"?>
<!-- Created with Inkscape (http://www.inkscape.org/) -->

<svg
   width="152.64801mm"
   height="152.64801mm"
   viewBox="0 0 152.64801 152.64801"
   version="1.1"
   id="svg5"
   xml:space="preserve"
   inkscape:version="1.2.2 (b0a8486541, 2022-12-01)"
   sodipodi:docname="favicon.svg"
   inkscape:export-filename="icon16.png"
   inkscape:export-xdpi="7.3050485"
   inkscape:export-ydpi="7.3050485"
   xmlns:inkscape="http://www.inkscape.org/namespaces/inkscape"
   xmlns:sodipodi="http://sodipodi.sourceforge.net/DTD/sodipodi-0.dtd"
   xmlns="http://www.w3.org/2000/svg"
   xmlns:svg="http://www.w3.org/2000/svg"><sodipodi:namedview
     id="namedview7"
     pagecolor="#ffffff"
     bordercolor="#000000"
     borderopacity="0.25"
     inkscape:showpageshadow="2"
     inkscape:pageopacity="0.0"
     inkscape:pagecheckerboard="0"
     inkscape:deskcolor="#d1d1d1"
     inkscape:document-units="mm"
     showgrid="false"
     inkscape:zoom="0.91490602"
     inkscape:cx="33.336757"
     inkscape:cy="337.73961"
     inkscape:window-width="2124"
     inkscape:window-height="1236"
     inkscape:window-x="3969"
     inkscape:window-y="51"
     inkscape:window-maximized="0"
     inkscape:current-layer="layer1" /><defs
     id="defs2" /><g
     inkscape:label="Layer 1"
     inkscape:groupmode="layer"
     id="layer1"
     transform="translate(-30.598282,-64.89743)"><circle
       style="fill:#fbeb0a;fill-opacity:1;stroke-width:3.166"
       id="path464"
       cx="106.92229"
       cy="141.22144"
       r="76.324005" /><path
       style="fill:#000000;stroke-width:0.104168"
       d="m 82.577989,183.29313 c -1.882189,-0.22322 -3.696088,-0.62951 -5.677971,-1.27176 -1.83736,-0.59541 -2.121343,-0.71175 -4.722428,-1.93446 -1.300088,-0.61114 -3.864476,-2.10234 -4.610829,-2.6812 -0.140886,-0.10931 -0.694186,-0.51513 -1.229553,-0.90188 -0.535369,-0.38677 -0.996452,-0.73236 -1.024628,-0.76798 -0.02818,-0.0356 -0.556529,-0.49169 -1.174113,-1.01353 -3.997796,-3.37795 -7.221918,-7.52457 -9.67166,-12.43895 -1.878172,-3.76774 -2.940985,-7.08591 -3.544631,-11.06654 -0.379088,-2.49983 -0.479311,-3.07284 -0.547825,-3.13219 -0.03992,-0.0347 -0.67199,-0.29032 -1.4046,-0.56832 -5.532987,-2.09981 -10.066817,-4.29901 -12.642668,-6.13254 -1.08388,-0.77153 -2.284203,-2.20864 -2.843527,-3.40445 -0.51457,-1.10015 -0.651861,-1.73382 -0.651316,-3.00615 9.58e-4,-2.1808 0.511458,-3.76939 1.602955,-4.98789 0.738451,-0.82437 1.534191,-1.23526 2.676886,-1.38223 1.655449,-0.21291 3.228519,0.17209 5.863592,1.43509 5.335323,2.55724 8.148676,3.75813 8.804246,3.75813 0.243996,0 0.294482,-0.09 0.668358,-1.19138 0.454625,-1.33926 1.830738,-4.22456 2.512773,-5.26854 2.330432,-3.56712 5.053283,-6.0784 8.507198,-7.84617 2.148975,-1.09986 4.478081,-1.84549 7.223632,-2.3125 5.382808,-0.91563 10.733046,-0.23191 13.62756,1.74149 1.804931,1.23054 2.502223,2.74655 2.379331,5.17294 -0.09581,1.89146 -0.618517,3.27706 -1.73198,4.5911 -0.802325,0.94684 -1.321666,1.35541 -2.495401,1.96315 -1.674896,0.86725 -3.298557,1.35289 -5.939126,1.7764 -4.057393,0.65076 -7.462593,2.34541 -9.045607,4.50169 -0.838498,1.14214 -1.106175,1.63996 -0.93917,1.74663 0.260621,0.16648 6.906629,1.79013 9.473514,2.31443 5.81391,1.18753 12.769502,2.14018 19.364427,2.65222 3.720949,0.28887 7.136982,0.45744 7.230972,0.35679 0.0436,-0.0467 0.30786,-0.60901 0.58736,-1.24971 0.27948,-0.64069 0.83638,-1.91409 1.23754,-2.82976 0.40119,-0.91567 0.7294,-1.68986 0.7294,-1.7204 0,-0.0305 0.51991,-1.13991 1.15534,-2.46524 2.37605,-4.95581 4.50134,-8.10065 7.75446,-11.47443 3.96782,-4.11497 8.06629,-6.59244 13.88819,-8.3952 4.51346,-1.39761 9.55,-1.76626 14.44725,-1.05746 3.62535,0.52471 7.25739,1.88519 10.32886,3.86896 3.26489,2.10868 6.38494,5.42392 8.66863,9.21093 0.64282,1.06596 2.0395,3.88573 2.62771,5.30513 0.16294,0.39315 0.35326,0.71482 0.42295,0.71482 0.0697,0 0.57815,-0.16966 1.12991,-0.37702 2.68483,-1.00903 3.71423,-1.35293 6.63865,-2.21776 2.39935,-0.70958 3.94997,-1.0042 5.34417,-1.01543 1.37461,-0.0105 1.97252,0.20396 2.61695,0.94121 0.54104,0.61897 0.64663,1.04188 0.63989,2.56311 -0.0127,2.84883 -0.95225,5.52907 -2.7526,7.85172 -2.44238,3.15089 -5.96366,5.56426 -10.47385,7.17847 l -1.55157,0.55529 -0.0716,0.70573 c -0.38444,3.78861 -1.8952,8.8795 -3.71353,12.5136 -1.91897,3.83528 -3.83627,6.51688 -6.89019,9.6369 -2.62871,2.68562 -6.23396,5.27343 -9.60792,6.89648 -0.60624,0.29163 -1.17747,0.57167 -1.26939,0.62232 -0.51069,0.28137 -2.64607,1.13007 -4.10193,1.63032 -2.45081,0.8421 -3.04992,0.96213 -4.7989,0.96137 -1.45829,-8.7e-4 -1.50051,-0.007 -2.2889,-0.35682 -1.41685,-0.6283 -2.29744,-1.79492 -2.80588,-3.71737 -0.26932,-1.01827 -0.24175,-3.46513 0.0513,-4.57227 0.68244,-2.57673 2.1682,-4.80344 4.12691,-6.18509 0.41949,-0.29591 1.38517,-0.83911 2.14597,-1.20713 5.90053,-2.85428 8.8485,-4.90378 11.12338,-7.73329 0.87104,-1.08341 1.26101,-1.69281 2.13686,-3.3393 0.61639,-1.15871 0.86535,-1.79358 0.75012,-1.91269 -0.0256,-0.0264 -0.61786,0.0943 -1.31614,0.26858 -2.72984,0.68091 -6.62574,1.43364 -11.51591,2.22497 -2.50396,0.40521 -6.08805,0.84028 -11.78322,1.43037 -2.49783,0.25881 -7.02531,0.59082 -9.15265,0.67119 l -1.98022,0.0748 -0.28754,0.74129 c -1.23871,3.19372 -3.54754,7.73632 -5.32866,10.48413 -2.24229,3.45925 -3.62627,5.16913 -5.89523,7.28346 -2.88504,2.6884 -5.676121,4.407 -8.965563,5.52054 -3.022549,1.02316 -5.662353,1.44553 -8.914269,1.42629 -1.042561,-0.007 -2.448676,-0.0768 -3.124701,-0.15701 z M 86.41993,166.5095 c 3.205495,-0.65397 5.664088,-2.13022 7.891838,-4.73859 0.611372,-0.71584 2.559371,-3.62879 2.559371,-3.82719 0,-0.0472 -0.380391,-0.11832 -0.845319,-0.15767 -6.623837,-0.56092 -14.307964,-1.52412 -18.264003,-2.28936 -5.443469,-1.05297 -6.825463,-1.35543 -9.923076,-2.17165 -1.00568,-0.265 -1.8554,-0.45401 -1.888266,-0.42006 -0.183645,0.18981 1.269044,3.58464 2.181068,5.09701 1.438083,2.38472 3.563524,4.47609 6.044073,5.94721 2.217132,1.31489 5.678622,2.42704 8.308737,2.66953 1.118914,0.10309 3.174171,0.0461 3.935577,-0.10918 z m 36.32315,-23.13178 c 5.62556,-0.39057 13.30081,-1.4308 18.76066,-2.54264 1.84314,-0.37534 8.4582,-1.93578 8.53273,-2.01278 0.0699,-0.0723 -0.5918,-1.31381 -1.09861,-2.06083 -0.67425,-0.9938 -1.93511,-2.22912 -3.07747,-3.01513 -1.42475,-0.98032 -2.69786,-1.52804 -4.72522,-2.0329 -0.91579,-0.22806 -1.39601,-0.27596 -3.22758,-0.32204 -1.86465,-0.047 -2.31577,-0.025 -3.38128,0.1638 -2.14271,0.37975 -3.49956,0.84137 -5.27613,1.79506 -2.60747,1.39973 -4.54671,3.21227 -6.25607,5.84729 -0.66637,1.02722 -1.95365,3.54697 -2.10212,4.11466 -0.0634,0.2427 -0.0515,0.24801 0.43182,0.18961 0.27342,-0.033 0.91209,-0.0889 1.41927,-0.12412 z"
       id="path302" /><circle
       style="fill:#000000;stroke-width:3.166"
       id="path343"
       cx="73.812767"
       cy="88.202255"
       r="9.6813688" /><circle
       style="fill:#000000;stroke-width:3.166"
       id="path343-3"
       cx="140.67728"
       cy="88.202255"
       r="9.6813688" /></g></svg>
